# xmcd
#
# Track frame offsets: 
#        150
#        9843
#        28034
#        43234
#        62903
#        85945
#        106032
#        121703
#        139044
#        150954
#        169737
#        186785
#        202063
#        220149
#        238806
#        257406
#
# Disc length: 3646 seconds
#
# Revision: 4
# Processed by: cddbd v1.5.2PL0 Copyright (c) Steve Scherf et al.
# Submitted via: ExactAudioCopy v1.3
#
DISCID=ce0e3c10
DTITLE=Sheryl Crow - Detours
DYEAR=2008
DGENRE=Rock
TTITLE0=God Bless This Mess
TTITLE1=Shine Over Babylon
TTITLE2=Love Is Free
TTITLE3=Peace Be Upon Us
TTITLE4=Gasoline
TTITLE5=Out Of Our Heads
TTITLE6=Detours
TTITLE7=Now That You're Gone
TTITLE8=Drunk With The Thought Of You
TTITLE9=Diamond Ring
TTITLE10=Motivation
TTITLE11=Make It Go Away (Radiation Songs)
TTITLE12=Love Is All There Is
TTITLE13=Lullaby For Wyatt
TTITLE14=Rise Up
TTITLE15=Beautiful Dream
EXTD=YEAR: 2008
EXTT0=
EXTT1=
EXTT2=
EXTT3=
EXTT4=
EXTT5=
EXTT6=
EXTT7=
EXTT8=
EXTT9=
EXTT10=
EXTT11=
EXTT12=
EXTT13=
EXTT14=
EXTT15=
PLAYORDER=
